<svg width="280" height="124" viewBox="0 0 280 124" fill="none" xmlns="http://www.w3.org/2000/svg">
<g clip-path="url(#clip0_351_15921)">
<path d="M123.23 57.288L126.957 52.824C128.944 54.56 131.677 55.8 134.161 55.8C136.894 55.8 138.385 54.808 138.385 53.072C138.385 51.336 136.646 50.592 134.161 49.6L130.435 47.864C127.453 46.624 124.472 44.144 124.472 39.928C124.472 34.968 128.944 31.248 134.907 31.248C138.385 31.248 141.863 32.488 144.348 35.216L140.87 39.432C138.882 37.944 137.143 37.2 134.658 37.2C132.422 37.2 130.932 38.192 130.932 39.928C130.932 41.664 132.919 42.408 135.404 43.4L139.13 44.888C142.609 46.376 145.093 48.856 145.093 52.824C145.093 57.784 141.118 62 133.913 62C130.435 61.504 126.211 60.016 123.23 57.288Z" fill="white"/>
<path d="M163.975 31.4961H171.925L181.118 61.0081H174.161L170.186 46.1281C169.441 43.1521 168.696 39.6801 167.702 36.7041H167.453C166.708 39.9281 165.963 43.1521 165.217 46.1281L161.242 61.0081H154.534L163.975 31.4961ZM160.745 48.8561H174.907V54.0641H160.745V48.8561Z" fill="white"/>
<path d="M192.05 31.4961H198.758V55.3041H210.435V60.7601H192.05V31.4961Z" fill="white"/>
<path d="M221.863 47.3681V31.4961H228.571V47.8641C228.571 53.5681 230.311 55.5521 233.789 55.5521C237.019 55.5521 239.006 53.5681 239.006 47.8641V31.4961H245.466V47.3681C245.466 57.2881 241.491 61.5041 233.789 61.5041C226.087 61.5041 221.863 57.2881 221.863 47.3681Z" fill="white"/>
<path d="M257.888 57.288L261.615 52.824C263.603 54.56 266.335 55.8 268.82 55.8C271.553 55.8 273.043 54.808 273.043 53.072C273.043 51.336 271.304 50.592 268.82 49.6L265.093 47.864C262.112 46.624 259.13 44.144 259.13 39.928C259.13 34.968 263.602 31.248 269.565 31.248C273.043 31.248 276.522 32.488 279.006 35.216L275.528 39.432C273.54 37.944 271.801 37.2 269.317 37.2C267.081 37.2 265.59 38.192 265.59 39.928C265.59 41.664 267.578 42.408 270.062 43.4L273.789 44.888C277.267 46.376 279.752 48.856 279.752 52.824C279.752 57.784 275.776 62 268.571 62C264.845 61.504 260.87 60.016 257.888 57.288Z" fill="white"/>
<path d="M123.23 90.7682L124.721 89.0322C126.211 90.5202 128.199 91.5122 130.186 91.5122C132.919 91.5122 134.41 90.2722 134.41 88.2882C134.41 86.3042 132.919 85.5602 131.18 84.8162L128.199 83.5762C126.46 82.8322 124.224 81.3442 124.224 78.3682C124.224 75.3922 126.957 73.1602 130.435 73.1602C132.919 73.1602 134.907 74.1522 136.398 75.6402L135.155 77.3762C133.913 76.1362 132.422 75.3922 130.683 75.3922C128.447 75.3922 126.957 76.6322 126.957 78.3682C126.957 80.3522 128.696 81.0962 130.186 81.5922L132.919 82.8322C135.155 83.8242 137.143 85.3122 137.143 88.0402C137.143 91.2642 134.658 93.7442 130.435 93.7442C127.453 93.7442 124.969 92.7522 123.23 90.7682Z" fill="white"/>
<path d="M154.037 75.6402H148.075V73.4082H162.733V75.6402H156.522V93.4962H154.037V75.6402Z" fill="white"/>
<path d="M175.652 73.4082H178.137V93.2482H175.652V73.4082Z" fill="white"/>
<path d="M193.043 73.4082H195.528V91.2642H204.224V93.4962H193.043V73.4082Z" fill="white"/>
<path d="M217.143 73.4082H219.627V91.2642H228.571V93.4962H217.391V73.4082H217.143Z" fill="white"/>
<path d="M245.714 73.4082H248.696L255.404 93.2482H252.671L249.193 82.0882C248.447 79.8562 247.95 77.6242 247.205 75.3922C246.708 77.6242 245.963 79.8562 245.217 82.0882L241.739 93.2482H239.255L245.714 73.4082ZM242.484 85.3122H251.677V87.2962H242.484V85.3122Z" fill="white"/>
<path d="M266.087 90.7682L267.578 89.0322C269.068 90.5202 271.056 91.5122 273.043 91.5122C275.776 91.5122 277.267 90.2722 277.267 88.2882C277.267 86.3042 275.776 85.5602 274.037 84.8162L271.056 83.5762C269.317 82.8322 267.081 81.3442 267.081 78.3682C267.081 75.3922 269.814 73.1602 273.292 73.1602C275.776 73.1602 277.764 74.1522 279.255 75.6402L278.012 77.3762C276.77 76.1362 275.28 75.3922 273.54 75.3922C271.304 75.3922 269.814 76.6322 269.814 78.3682C269.814 80.3522 271.553 81.0962 273.043 81.5922L275.776 82.8322C278.012 83.8242 280 85.3122 280 88.0402C280 91.2642 277.516 93.7442 273.292 93.7442C270.311 93.7442 267.826 92.7522 266.087 90.7682Z" fill="white"/>
<path d="M4.96894 33.728V90.272L53.6646 118.296H53.9131V124H53.6646L0 93V31L53.6646 0H53.9131V5.704H53.6646L4.96894 33.728Z" fill="#CCCCCC"/>
<path d="M107.578 31V93L53.913 124V118.296L102.609 90.272V33.728L53.913 5.704V0L107.578 31Z" fill="white"/>
<path d="M8.4472 36.9521V89.2801L51.677 113.336V99.6961V40.9201L36.7702 54.8081V91.5121L33.2919 89.5281V57.7841L23.8509 65.9681V84.3201L20.1242 82.3361V43.6481L53.913 24.3041V10.6641L8.4472 36.9521Z" fill="#CCCCCC"/>
<path d="M53.913 10.6641V24.3041L87.4534 43.6481V82.3361L83.7267 84.3201V65.9681L74.2857 57.7841V89.5281L70.8075 91.5121V54.8081L55.9006 40.9201V99.6961V113.336L99.1304 89.2801V36.9521L53.913 10.6641Z" fill="white"/>
</g>
<defs>
<clipPath id="clip0_351_15921">
<rect width="280" height="124" fill="white"/>
</clipPath>
</defs>
</svg>
