<svg width="1920" height="260" viewBox="0 0 1920 260" fill="none" xmlns="http://www.w3.org/2000/svg">
<g clip-path="url(#clip0_351_15511)">
<g opacity="0.5">
<path d="M41.2 296.722H0V158.178H41.2V296.722ZM1 295.603H40.2V159.297H1V295.603Z" fill="#929292"/>
<path d="M33.3 172.012H8V173.029H33.3V172.012Z" fill="#929292"/>
<path d="M33.3 187.677H8V188.694H33.3V187.677Z" fill="#929292"/>
<path d="M33.3 203.342H8V204.359H33.3V203.342Z" fill="#929292"/>
<path d="M33.3 219.108H8V220.126H33.3V219.108Z" fill="#929292"/>
<path d="M33.3 234.773H8V235.791H33.3V234.773Z" fill="#929292"/>
<path d="M33.3 250.438H8V251.456H33.3V250.438Z" fill="#929292"/>
<path d="M36.6 158.789H4.70001V112.811H36.6V158.789ZM5.70001 157.771H35.5V113.828H5.70001V157.771Z" fill="#929292"/>
<path d="M29.7 122.576H11.5V123.593H29.7V122.576Z" fill="#929292"/>
<path d="M29.7 135.291H11.5V136.308H29.7V135.291Z" fill="#929292"/>
<path d="M29.7 148.007H11.5V149.024H29.7V148.007Z" fill="#929292"/>
<path d="M33.3 113.827H8V88.0918H33.3V113.827ZM9 112.81H32.3V89.109H9V112.81Z" fill="#929292"/>
<path d="M29.6 89.1088H11.6V61.9492H29.6V89.1088ZM12.6 88.0916H28.6V62.9664H12.6V88.0916Z" fill="#929292"/>
<path d="M21.1 36.7227H20.1V62.4582H21.1V36.7227Z" fill="#929292"/>
<path d="M116 296.722H74.7V158.178H116V296.722ZM75.7 295.603H114.9V159.297H75.7V295.603Z" fill="#929292"/>
<path d="M108 172.012H82.7V173.029H108V172.012Z" fill="#929292"/>
<path d="M108 187.677H82.7V188.694H108V187.677Z" fill="#929292"/>
<path d="M108 203.342H82.7V204.359H108V203.342Z" fill="#929292"/>
<path d="M108 219.108H82.7V220.126H108V219.108Z" fill="#929292"/>
<path d="M108 234.773H82.7V235.791H108V234.773Z" fill="#929292"/>
<path d="M108 250.438H82.7V251.456H108V250.438Z" fill="#929292"/>
<path d="M111.3 158.789H79.4V112.811H111.3V158.789ZM80.4 157.771H110.2V113.828H80.4V157.771Z" fill="#929292"/>
<path d="M104.4 122.576H86.2V123.593H104.4V122.576Z" fill="#929292"/>
<path d="M104.4 135.291H86.2V136.308H104.4V135.291Z" fill="#929292"/>
<path d="M104.4 148.007H86.2V149.024H104.4V148.007Z" fill="#929292"/>
<path d="M108 113.827H82.7V88.0918H108V113.827ZM83.7 112.81H107V89.109H83.7V112.81Z" fill="#929292"/>
<path d="M104.3 89.1088H86.3V61.9492H104.3V89.1088ZM87.3 88.0916H103.3V62.9664H87.3V88.0916Z" fill="#929292"/>
<path d="M95.8 36.7227H94.8V62.4582H95.8V36.7227Z" fill="#929292"/>
<path d="M75.7 191.848H40.2V176.59H75.7V191.848ZM41.2 190.831H74.7V177.607H41.2V190.831Z" fill="#929292"/>
<path d="M75.7 227.246H40.2V211.988H75.7V227.246ZM41.2 226.229H74.7V213.005H41.2V226.229Z" fill="#929292"/>
<path d="M204.3 296.723H136.4V203.444H204.3V296.723ZM137.4 295.604H203.3V204.36H137.4V295.604Z" fill="#929292"/>
<path d="M166.1 234.469H148.1V216.159H166.1V234.469ZM149.1 233.452H165.1V217.176H149.1V233.452Z" fill="#929292"/>
<path d="M192.6 234.469H174.6V216.159H192.6V234.469ZM175.7 233.452H191.7V217.176H175.7V233.452Z" fill="#929292"/>
<path d="M166.1 259.188H148.1V240.878H166.1V259.188ZM149.1 258.171H165.1V241.895H149.1V258.171Z" fill="#929292"/>
<path d="M192.6 259.188H174.6V240.878H192.6V259.188ZM175.7 258.171H191.7V241.895H175.7V258.171Z" fill="#929292"/>
<path d="M925.5 296.723H857.6V203.444H925.5V296.723ZM858.6 295.604H924.5V204.36H858.6V295.604Z" fill="#929292"/>
<path d="M887.2 234.469H869.2V216.159H887.2V234.469ZM870.3 233.452H886.3V217.176H870.3V233.452Z" fill="#929292"/>
<path d="M913.8 234.469H895.8V216.159H913.8V234.469ZM896.8 233.452H912.8V217.176H896.8V233.452Z" fill="#929292"/>
<path d="M887.2 259.188H869.2V240.878H887.2V259.188ZM870.3 258.171H886.3V241.895H870.3V258.171Z" fill="#929292"/>
<path d="M913.8 259.188H895.8V240.878H913.8V259.188ZM896.8 258.171H912.8V241.895H896.8V258.171Z" fill="#929292"/>
<path d="M288.5 296.723H221.1V172.013H288.5V296.723ZM222.1 295.604H287.5V173.03H222.1V295.604Z" fill="#929292"/>
<path d="M276.1 189.61H233.5V190.628H276.1V189.61Z" fill="#929292"/>
<path d="M276.1 207.31H233.5V208.327H276.1V207.31Z" fill="#929292"/>
<path d="M276.1 225.01H233.5V226.027H276.1V225.01Z" fill="#929292"/>
<path d="M276.1 242.709H233.5V243.726H276.1V242.709Z" fill="#929292"/>
<path d="M276.6 173.03H233V154.72H276.6V173.03ZM234 172.012H275.5V155.737H234V172.012Z" fill="#929292"/>
<path d="M836.8 296.723H769.4V172.013H836.8V296.723ZM770.4 295.604H835.8V173.03H770.4V295.604Z" fill="#929292"/>
<path d="M824.4 189.61H781.8V190.628H824.4V189.61Z" fill="#929292"/>
<path d="M824.4 207.31H781.8V208.327H824.4V207.31Z" fill="#929292"/>
<path d="M824.4 225.01H781.8V226.027H824.4V225.01Z" fill="#929292"/>
<path d="M824.4 242.709H781.8V243.726H824.4V242.709Z" fill="#929292"/>
<path d="M824.9 173.03H781.3V154.72H824.9V173.03ZM782.3 172.012H823.8V155.737H782.3V172.012Z" fill="#929292"/>
<path d="M493.7 296.723H426.3V172.013H493.7V296.723ZM427.3 295.604H492.7V173.03H427.3V295.604Z" fill="#929292"/>
<path d="M481.3 189.61H438.7V190.628H481.3V189.61Z" fill="#929292"/>
<path d="M481.3 207.31H438.7V208.327H481.3V207.31Z" fill="#929292"/>
<path d="M481.3 225.01H438.7V226.027H481.3V225.01Z" fill="#929292"/>
<path d="M481.3 242.709H438.7V243.726H481.3V242.709Z" fill="#929292"/>
<path d="M481.8 173.03H438.2V154.72H481.8V173.03ZM439.3 172.012H480.8V155.737H439.3V172.012Z" fill="#929292"/>
<path d="M404.6 296.722H310.3V88.0918H404.6V296.722ZM311.3 295.604H403.6V89.109H311.3V295.604Z" fill="#929292"/>
<path d="M357.9 88.6006H356.9V296.214H357.9V88.6006Z" fill="#929292"/>
<path d="M347.5 109.962H322.2V110.979H347.5V109.962Z" fill="#929292"/>
<path d="M347.5 125.627H322.2V126.644H347.5V125.627Z" fill="#929292"/>
<path d="M347.5 141.292H322.2V142.309H347.5V141.292Z" fill="#929292"/>
<path d="M347.5 157.059H322.2V158.076H347.5V157.059Z" fill="#929292"/>
<path d="M347.5 172.724H322.2V173.741H347.5V172.724Z" fill="#929292"/>
<path d="M394.5 210.869H369.2V211.886H394.5V210.869Z" fill="#929292"/>
<path d="M394.5 226.636H369.2V227.653H394.5V226.636Z" fill="#929292"/>
<path d="M394.5 242.301H369.2V243.318H394.5V242.301Z" fill="#929292"/>
<path d="M394.5 257.966H369.2V258.983H394.5V257.966Z" fill="#929292"/>
<path d="M394.9 89.109H321.6V74.9697H394.9V89.109ZM322.7 88.0918H393.9V75.9869H322.7V88.0918Z" fill="#929292"/>
<path d="M662.9 296.722H511.7V225.009H662.9V296.722ZM512.7 295.603H661.8V225.924H512.7V295.603Z" fill="#929292"/>
<path d="M662.9 226.026H586.8V207.31H662.9V226.026ZM587.8 225.009H661.8V208.327H587.8V225.009Z" fill="#929292"/>
<path d="M587.8 225.518H586.8V296.214H587.8V225.518Z" fill="#929292"/>
<path d="M648.3 245.76H601.3V246.777H648.3V245.76Z" fill="#929292"/>
<path d="M648.3 236.198H601.3V237.215H648.3V236.198Z" fill="#929292"/>
<path d="M1103.2 296.722H952.1V225.009H1103.3V296.722H1103.2ZM953.1 295.603H1102.2V225.924H953.1V295.603Z" fill="#929292"/>
<path d="M1103.2 226.026H1027.1V207.31H1103.2V226.026ZM1028.2 225.009H1102.2V208.327H1028.2V225.009Z" fill="#929292"/>
<path d="M1028.1 225.518H1027.1V296.214H1028.1V225.518Z" fill="#929292"/>
<path d="M1088.7 245.76H1041.7V246.777H1088.7V245.76Z" fill="#929292"/>
<path d="M1088.7 236.198H1041.7V237.215H1088.7V236.198Z" fill="#929292"/>
<path d="M748.7 296.723H680.8V203.444H748.7V296.723ZM681.8 295.604H747.7V204.36H681.8V295.604Z" fill="#929292"/>
<path d="M710.5 234.469H692.5V216.159H710.5V234.469ZM693.5 233.452H709.5V217.176H693.5V233.452Z" fill="#929292"/>
<path d="M737.1 234.469H719.1V216.159H737.1V234.469ZM720.1 233.452H736.1V217.176H720.1V233.452Z" fill="#929292"/>
<path d="M710.5 259.188H692.5V240.878H710.5V259.188ZM693.5 258.171H709.5V241.895H693.5V258.171Z" fill="#929292"/>
<path d="M737.1 259.188H719.1V240.878H737.1V259.188ZM720.1 258.171H736.1V241.895H720.1V258.171Z" fill="#929292"/>
<path d="M737.1 204.461H692.5V148.209H737.1V204.461ZM693.5 203.342H736V149.226H693.5V203.342Z" fill="#929292"/>
<path d="M728.6 149.226H701V109.962H728.6V149.226ZM702 148.209H727.6V110.979H702V148.209Z" fill="#929292"/>
<path d="M715.3 75.4785H714.3V110.471H715.3V75.4785Z" fill="#929292"/>
<path d="M1742.2 296.723H1674.3V203.444H1742.2V296.723ZM1675.4 295.604H1741.3V204.36H1675.4V295.604Z" fill="#929292"/>
<path d="M1704 234.469H1686V216.159H1704V234.469ZM1687 233.452H1703V217.176H1687V233.452Z" fill="#929292"/>
<path d="M1730.6 234.469H1712.6V216.159H1730.6V234.469ZM1713.6 233.452H1729.6V217.176H1713.6V233.452Z" fill="#929292"/>
<path d="M1704 259.188H1686V240.878H1704V259.188ZM1687 258.171H1703V241.895H1687V258.171Z" fill="#929292"/>
<path d="M1730.6 259.188H1712.6V240.878H1730.6V259.188ZM1713.6 258.171H1729.6V241.895H1713.6V258.171Z" fill="#929292"/>
<path d="M1653.6 296.723H1586.2V172.013H1653.6V296.723ZM1587.1 295.604H1652.5V173.03H1587.1V295.604Z" fill="#929292"/>
<path d="M1641.2 189.61H1598.6V190.628H1641.2V189.61Z" fill="#929292"/>
<path d="M1641.2 207.31H1598.6V208.327H1641.2V207.31Z" fill="#929292"/>
<path d="M1641.2 225.01H1598.6V226.027H1641.2V225.01Z" fill="#929292"/>
<path d="M1641.2 242.709H1598.6V243.726H1641.2V242.709Z" fill="#929292"/>
<path d="M1641.6 173.03H1598V154.72H1641.6V173.03ZM1599.1 172.012H1640.6V155.737H1599.1V172.012Z" fill="#929292"/>
<path d="M1310.5 296.723H1243.1V172.013H1310.5V296.723ZM1244.1 295.604H1309.5V173.03H1244.1V295.604Z" fill="#929292"/>
<path d="M1298.1 189.61H1255.5V190.628H1298.1V189.61Z" fill="#929292"/>
<path d="M1298.1 207.31H1255.5V208.327H1298.1V207.31Z" fill="#929292"/>
<path d="M1298.1 225.01H1255.5V226.027H1298.1V225.01Z" fill="#929292"/>
<path d="M1298.1 242.709H1255.5V243.726H1298.1V242.709Z" fill="#929292"/>
<path d="M1298.6 173.03H1255V154.72H1298.6V173.03ZM1256 172.012H1297.5V155.737H1256V172.012Z" fill="#929292"/>
<path d="M1221.3 296.722H1127V88.0918H1221.3V296.722ZM1128 295.604H1220.3V89.109H1128V295.604Z" fill="#929292"/>
<path d="M1174.7 88.6006H1173.7V296.214H1174.7V88.6006Z" fill="#929292"/>
<path d="M1164.2 109.962H1138.9V110.979H1164.2V109.962Z" fill="#929292"/>
<path d="M1164.2 125.627H1138.9V126.644H1164.2V125.627Z" fill="#929292"/>
<path d="M1164.2 141.292H1138.9V142.309H1164.2V141.292Z" fill="#929292"/>
<path d="M1164.2 157.059H1138.9V158.076H1164.2V157.059Z" fill="#929292"/>
<path d="M1164.2 172.724H1138.9V173.741H1164.2V172.724Z" fill="#929292"/>
<path d="M1211.2 210.869H1185.9V211.886H1211.2V210.869Z" fill="#929292"/>
<path d="M1211.2 226.636H1185.9V227.653H1211.2V226.636Z" fill="#929292"/>
<path d="M1211.2 242.301H1185.9V243.318H1211.2V242.301Z" fill="#929292"/>
<path d="M1211.2 257.966H1185.9V258.983H1211.2V257.966Z" fill="#929292"/>
<path d="M1211.7 89.109H1138.4V74.9697H1211.7V89.109ZM1139.4 88.0918H1210.6V75.9869H1139.4V88.0918Z" fill="#929292"/>
<path d="M1479.6 296.722H1328.4V225.009H1479.6V296.722ZM1329.5 295.603H1478.6V225.924H1329.5V295.603Z" fill="#929292"/>
<path d="M1479.6 226.026H1403.5V207.31H1479.6V226.026ZM1404.6 225.009H1478.6V208.327H1404.6V225.009Z" fill="#929292"/>
<path d="M1404.5 225.518H1403.5V296.214H1404.5V225.518Z" fill="#929292"/>
<path d="M1465.1 245.76H1418.1V246.777H1465.1V245.76Z" fill="#929292"/>
<path d="M1465.1 236.198H1418.1V237.215H1465.1V236.198Z" fill="#929292"/>
<path d="M1920 296.722H1768.8V225.009H1920V296.722ZM1769.9 295.603H1919V225.924H1769.9V295.603Z" fill="#929292"/>
<path d="M1920 226.026H1843.9V207.31H1920V226.026ZM1844.9 225.009H1918.9V208.327H1844.9V225.009Z" fill="#929292"/>
<path d="M1844.9 225.518H1843.9V296.214H1844.9V225.518Z" fill="#929292"/>
<path d="M1905.5 245.76H1858.5V246.777H1905.5V245.76Z" fill="#929292"/>
<path d="M1905.5 236.198H1858.5V237.215H1905.5V236.198Z" fill="#929292"/>
<path d="M1565.5 296.723H1497.6V203.444H1565.5V296.723ZM1498.6 295.604H1564.5V204.36H1498.6V295.604Z" fill="#929292"/>
<path d="M1527.3 234.469H1509.3V216.159H1527.3V234.469ZM1510.3 233.452H1526.3V217.176H1510.3V233.452Z" fill="#929292"/>
<path d="M1553.8 234.469H1535.8V216.159H1553.8V234.469ZM1536.8 233.452H1552.8V217.176H1536.8V233.452Z" fill="#929292"/>
<path d="M1527.3 259.188H1509.3V240.878H1527.3V259.188ZM1510.3 258.171H1526.3V241.895H1510.3V258.171Z" fill="#929292"/>
<path d="M1553.8 259.188H1535.8V240.878H1553.8V259.188ZM1536.8 258.171H1552.8V241.895H1536.8V258.171Z" fill="#929292"/>
<path d="M1553.8 204.461H1509.2V148.209H1553.8V204.461ZM1510.3 203.342H1552.8V149.226H1510.3V203.342Z" fill="#929292"/>
<path d="M1545.3 149.226H1517.7V109.962H1545.3V149.226ZM1518.8 148.209H1544.4V110.979H1518.8V148.209Z" fill="#929292"/>
<path d="M1532 75.4785H1531V110.471H1532V75.4785Z" fill="#929292"/>
</g>
</g>
<defs>
<clipPath id="clip0_351_15511">
<rect width="1920" height="260" fill="white"/>
</clipPath>
</defs>
</svg>
