<svg width="182" height="80" viewBox="0 0 182 80" fill="none" xmlns="http://www.w3.org/2000/svg">
<g clip-path="url(#clip0_141_1075)">
<path d="M80.1997 36.9602L82.5997 34.0802C83.8797 35.2002 85.6397 36.0002 87.2397 36.0002C88.9997 36.0002 89.9597 35.3602 89.9597 34.2402C89.9597 33.1202 88.8397 32.6402 87.2397 32.0002L84.8397 30.8802C82.9197 30.0802 80.9997 28.4802 80.9997 25.7602C80.9997 22.5602 83.8797 20.1602 87.7197 20.1602C89.9597 20.1602 92.1997 20.9602 93.7997 22.7202L91.5597 25.4402C90.2797 24.4802 89.1597 24.0002 87.5597 24.0002C86.1197 24.0002 85.1597 24.6402 85.1597 25.7602C85.1597 26.8802 86.4397 27.3602 88.0397 28.0002L90.4397 28.9602C92.6797 29.9202 94.2797 31.5202 94.2797 34.0802C94.2797 37.2802 91.7197 40.0002 87.0797 40.0002C84.8397 39.6802 82.1197 38.7202 80.1997 36.9602Z" fill="#36454F"/>
<path d="M106.44 20.3203H111.56L117.48 39.3603H113L110.44 29.7603C109.96 27.8403 109.48 25.6003 108.84 23.6803H108.68C108.2 25.7603 107.72 27.8403 107.24 29.7603L104.68 39.3603H100.36L106.44 20.3203ZM104.36 31.5203H113.48V34.8803H104.36V31.5203Z" fill="#36454F"/>
<path d="M124.52 20.3203H128.84V35.6803H136.36V39.2003H124.52V20.3203Z" fill="#36454F"/>
<path d="M143.72 30.5603V20.3203H148.04V30.8803C148.04 34.5603 149.16 35.8403 151.4 35.8403C153.48 35.8403 154.76 34.5603 154.76 30.8803V20.3203H158.92V30.5603C158.92 36.9603 156.36 39.6803 151.4 39.6803C146.44 39.6803 143.72 36.9603 143.72 30.5603Z" fill="#36454F"/>
<path d="M166.92 36.9602L169.32 34.0802C170.6 35.2002 172.36 36.0002 173.96 36.0002C175.72 36.0002 176.68 35.3602 176.68 34.2402C176.68 33.1202 175.56 32.6402 173.96 32.0002L171.56 30.8802C169.64 30.0802 167.72 28.4802 167.72 25.7602C167.72 22.5602 170.6 20.1602 174.44 20.1602C176.68 20.1602 178.92 20.9602 180.52 22.7202L178.28 25.4402C177 24.4802 175.88 24.0002 174.28 24.0002C172.84 24.0002 171.88 24.6402 171.88 25.7602C171.88 26.8802 173.16 27.3602 174.76 28.0002L177.16 28.9602C179.4 29.9202 181 31.5202 181 34.0802C181 37.2802 178.44 40.0002 173.8 40.0002C171.4 39.6802 168.84 38.7202 166.92 36.9602Z" fill="#36454F"/>
<path d="M80.1997 58.5602L81.1597 57.4402C82.1197 58.4002 83.3997 59.0402 84.6797 59.0402C86.4397 59.0402 87.3997 58.2402 87.3997 56.9602C87.3997 55.6802 86.4397 55.2002 85.3197 54.7202L83.3997 53.9202C82.2797 53.4402 80.8397 52.4802 80.8397 50.5602C80.8397 48.6402 82.5997 47.2002 84.8397 47.2002C86.4397 47.2002 87.7197 47.8402 88.6797 48.8002L87.8797 49.9202C87.0797 49.1202 86.1197 48.6402 84.9997 48.6402C83.5597 48.6402 82.5997 49.4402 82.5997 50.5602C82.5997 51.8402 83.7197 52.3202 84.6797 52.6402L86.4397 53.4402C87.8797 54.0802 89.1597 55.0402 89.1597 56.8002C89.1597 58.8802 87.5597 60.4802 84.8397 60.4802C82.9197 60.4802 81.3197 59.8402 80.1997 58.5602Z" fill="#36454F"/>
<path d="M100.04 48.8004H96.1997V47.3604H105.64V48.8004H101.64V60.3204H100.04V48.8004Z" fill="#36454F"/>
<path d="M113.959 47.3604H115.559V60.1603H113.959V47.3604Z" fill="#36454F"/>
<path d="M125.16 47.3604H126.76V58.8804H132.36V60.3204H125.16V47.3604Z" fill="#36454F"/>
<path d="M140.68 47.3604H142.28V58.8804H148.04V60.3204H140.84V47.3604H140.68Z" fill="#36454F"/>
<path d="M159.08 47.3604H161L165.32 60.1603H163.56L161.32 52.9603C160.84 51.5203 160.52 50.0804 160.04 48.6404C159.72 50.0804 159.24 51.5203 158.76 52.9603L156.52 60.1603H154.92L159.08 47.3604ZM157 55.0404H162.92V56.3204H157V55.0404Z" fill="#36454F"/>
<path d="M172.2 58.5602L173.16 57.4402C174.12 58.4002 175.4 59.0402 176.68 59.0402C178.44 59.0402 179.4 58.2402 179.4 56.9602C179.4 55.6802 178.44 55.2002 177.32 54.7202L175.4 53.9202C174.28 53.4402 172.84 52.4802 172.84 50.5602C172.84 48.6402 174.6 47.2002 176.84 47.2002C178.44 47.2002 179.72 47.8402 180.68 48.8002L179.88 49.9202C179.08 49.1202 178.12 48.6402 177 48.6402C175.56 48.6402 174.6 49.4402 174.6 50.5602C174.6 51.8402 175.72 52.3202 176.68 52.6402L178.44 53.4402C179.88 54.0802 181.16 55.0402 181.16 56.8002C181.16 58.8802 179.56 60.4802 176.84 60.4802C174.92 60.4802 173.32 59.8402 172.2 58.5602Z" fill="#36454F"/>
<path d="M4.03984 21.76V58.24L35.3998 76.32H35.5598V80H35.3998L0.839844 60V20L35.3998 0H35.5598V3.68H35.3998L4.03984 21.76Z" fill="#424242"/>
<path d="M70.1201 20V60L35.5601 80V76.32L66.9201 58.24V21.76L35.5601 3.68V0L70.1201 20Z" fill="#7A7A7A"/>
<path d="M6.27979 23.8399V57.5999L34.1198 73.1199V64.3199V26.3999L24.5198 35.3599V59.0399L22.2798 57.7599V37.2799L16.1998 42.5599V54.3999L13.7998 53.1199V28.1599L35.5598 15.6799V6.87988L6.27979 23.8399Z" fill="#424242"/>
<path d="M35.5596 6.87988V15.6799L57.1596 28.1599V53.1199L54.7596 54.3999V42.5599L48.6796 37.2799V57.7599L46.4396 59.0399V35.3599L36.8396 26.3999V64.3199V73.1199L64.6796 57.5999V23.8399L35.5596 6.87988Z" fill="#7A7A7A"/>
</g>
<defs>
<clipPath id="clip0_141_1075">
<rect width="180.32" height="80" fill="white" transform="translate(0.839844)"/>
</clipPath>
</defs>
</svg>
