<svg width="42" height="42" viewBox="0 0 42 42" fill="none" xmlns="http://www.w3.org/2000/svg">
<g clip-path="url(#clip0_617_2286)">
<path fill-rule="evenodd" clip-rule="evenodd" d="M7 21C7.00025 18.3058 7.7779 15.6689 9.23963 13.4057C10.7014 11.1425 12.7851 9.3491 15.2408 8.24077C17.6964 7.13245 20.4198 6.75623 23.084 7.15728C25.7482 7.55832 28.24 8.71959 30.2606 10.5017C32.2812 12.2839 33.7446 14.6112 34.4753 17.2044C35.206 19.7977 35.1729 22.5467 34.38 25.1216C33.5871 27.6964 32.068 29.9878 30.0051 31.7208C27.9422 33.4538 25.4231 34.5547 22.75 34.8915V24.5H26.25C26.7141 24.5 27.1592 24.3156 27.4874 23.9874C27.8156 23.6592 28 23.2141 28 22.75C28 22.2859 27.8156 21.8408 27.4874 21.5126C27.1592 21.1844 26.7141 21 26.25 21H22.75V17.5C22.75 17.0359 22.9344 16.5908 23.2626 16.2626C23.5908 15.9344 24.0359 15.75 24.5 15.75H25.375C25.8391 15.75 26.2842 15.5656 26.6124 15.2374C26.9406 14.9092 27.125 14.4641 27.125 14C27.125 13.5359 26.9406 13.0908 26.6124 12.7626C26.2842 12.4344 25.8391 12.25 25.375 12.25H24.5C23.1076 12.25 21.7723 12.8031 20.7877 13.7877C19.8031 14.7723 19.25 16.1076 19.25 17.5V21H15.75C15.2859 21 14.8408 21.1844 14.5126 21.5126C14.1844 21.8408 14 22.2859 14 22.75C14 23.2141 14.1844 23.6592 14.5126 23.9874C14.8408 24.3156 15.2859 24.5 15.75 24.5H19.25V34.8915C15.8667 34.4649 12.7554 32.8182 10.5 30.2606C8.24458 27.7029 7.00006 24.4101 7 21ZM21 38.5C30.6652 38.5 38.5 30.6652 38.5 21C38.5 11.3348 30.6652 3.5 21 3.5C11.3348 3.5 3.5 11.3348 3.5 21C3.5 30.6652 11.3348 38.5 21 38.5Z" fill="black"/>
</g>
<defs>
<clipPath id="clip0_617_2286">
<rect width="42" height="42" fill="white"/>
</clipPath>
</defs>
</svg>
