<svg width="42" height="42" viewBox="0 0 42 42" fill="none" xmlns="http://www.w3.org/2000/svg">
<path d="M34.7689 4.59375H7.23105C5.775 4.59375 4.59375 5.775 4.59375 7.23105V34.7689C4.59375 36.225 5.775 37.4062 7.23105 37.4062H34.7689C36.225 37.4062 37.4062 36.225 37.4062 34.7689V7.23105C37.4062 5.775 36.225 4.59375 34.7689 4.59375ZM34.7689 34.7812C16.4021 34.7771 7.21875 34.773 7.21875 34.7689C7.22285 16.4021 7.22695 7.21875 7.23105 7.21875C25.5979 7.22285 34.7812 7.22695 34.7812 7.23105C34.7771 25.5979 34.773 34.7812 34.7689 34.7812ZM9.4582 16.8943H14.3268V32.5541H9.4582V16.8943ZM11.8945 14.7533C13.449 14.7533 14.7164 13.49 14.7164 11.9314C14.7164 11.5609 14.6434 11.1939 14.5016 10.8516C14.3598 10.5092 14.1519 10.1981 13.8899 9.93608C13.6279 9.67404 13.3168 9.46619 12.9744 9.32437C12.6321 9.18256 12.2651 9.10957 11.8945 9.10957C11.524 9.10957 11.157 9.18256 10.8146 9.32437C10.4723 9.46619 10.1612 9.67404 9.89916 9.93608C9.63713 10.1981 9.42927 10.5092 9.28746 10.8516C9.14565 11.1939 9.07266 11.5609 9.07266 11.9314C9.06855 13.49 10.3318 14.7533 11.8945 14.7533ZM22.2428 24.8062C22.2428 22.7637 22.6324 20.7867 25.1631 20.7867C27.6568 20.7867 27.6938 23.1205 27.6938 24.9375V32.5541H32.5582V23.9654C32.5582 19.749 31.6477 16.5047 26.7217 16.5047C24.3551 16.5047 22.7678 17.8049 22.1156 19.0354H22.05V16.8943H17.3783V32.5541H22.2428V24.8062Z" fill="black"/>
</svg>
